<?xml version="1.0" standalone="no"?><!DOCTYPE svg PUBLIC "-//W3C//DTD SVG 1.1//EN" "http://www.w3.org/Graphics/SVG/1.1/DTD/svg11.dtd"><svg t="1599117494066" class="icon" viewBox="0 0 1024 1024" version="1.1" xmlns="http://www.w3.org/2000/svg" p-id="2430" xmlns:xlink="http://www.w3.org/1999/xlink" width="200" height="200"><defs><style type="text/css"></style></defs><path d="M484.38 275.076L297.5 297.5 275.076 484.38 636.45 845.754l209.303-209.303L484.38 275.076z m38.618-68.862l407.61 407.61c12.496 12.496 12.496 32.757 0 45.254l-271.53 271.53c-12.497 12.496-32.758 12.496-45.255 0l-407.61-407.61a32 32 0 0 1-9.144-26.44l29.093-242.437c1.758-14.652 13.307-26.201 27.959-27.96l242.437-29.092a32 32 0 0 1 26.44 9.145z m-169.39 203.963c-15.62-15.621-15.62-40.948 0-56.569 15.621-15.62 40.948-15.62 56.569 0 15.62 15.621 15.62 40.948 0 56.569-15.621 15.62-40.948 15.62-56.569 0z" fill="#5090F1" p-id="2431"></path></svg>