<?xml version="1.0" standalone="no"?><!DOCTYPE svg PUBLIC "-//W3C//DTD SVG 1.1//EN" "http://www.w3.org/Graphics/SVG/1.1/DTD/svg11.dtd"><svg t="1599117528650" class="icon" viewBox="0 0 1024 1024" version="1.1" xmlns="http://www.w3.org/2000/svg" p-id="3981" width="200" height="200" xmlns:xlink="http://www.w3.org/1999/xlink"><defs><style type="text/css"></style></defs><path d="M537.3 580.5c-23.6-11.5-44-21.5-44-44.6 0-20.5 13.9-33.7 35.4-33.7 19.5 0 30.2 7 44.3 20.6l2.5 2.4 21.3-23.4-2.2-2.3c-12-12.6-27.6-25.8-53.3-29.5v-38.5h-29.4v39.3c-34.1 6.1-55.9 31.9-55.9 66.3 0 41.1 31.4 57.1 59.1 71.2 24.8 12.6 48.2 24.5 48.2 52.2 0 23.3-14.1 36.1-39.8 36.1-19.1 0-37.6-7.9-56.8-24.2l-2.8-2.4-18.5 26.7 2.2 2c17.1 15.7 41.5 27 64.4 30v38.4h29.4v-39.2c36.7-6.3 59.3-32.7 59.3-69.4-0.1-47.1-33.7-63.5-63.4-78z" fill="#3468F7" p-id="3982"></path><path d="M513 895.9c-205.2 0-415-29.7-415-249.9 0-118.2 138.3-277.2 290.2-333.6 3.1-1.2 6.4-1.8 9.8-1.8 63.7 0 97.6-0.7 130.5-1.3 30.1-0.6 58.5-1.1 106.9-1.1h4.8l4.5 1.6C795.6 362.9 928 520 928 646c0 220.2-209.8 249.9-415 249.9zM403.1 368.3c-126 49-248.3 185.2-248.3 277.7 0 138.4 100.4 192.3 358.1 192.3S871.1 784.4 871.1 646c0-101.2-114.1-233.5-240.6-280.2-45 0-72.2 0.6-101 1.1-32.2 0.7-65.4 1.4-126.4 1.4zM689.3 148.5c-7.9-12-21.3-20.6-36.1-20.6h-281c-15.1 0.2-28.6 8.2-36.2 20.6-7.1 11.6-7.7 28.4-1.7 40.6l57.1 108.1 248-3.5 52.8-109.9c5.7-12.3 4.5-23.9-2.9-35.3z" fill="#3468F7" p-id="3983"></path></svg>